<svg width="72" height="72" viewBox="0 0 72 72" fill="none" xmlns="http://www.w3.org/2000/svg">
<rect width="72" height="72" fill="url(#paint0_linear_light_rain_bg_night)"/>
<path fill-rule="evenodd" clip-rule="evenodd" d="M50 25C50 18.9249 45.0751 14 39 14C35.5 14 32.5 15.5 30.5 18C28 16.5 25 16 22 18C18 21 17 26 19 30C16 32 15 36 17 40C20 45 26 48 32 47C35 49 39 50 43 48C47 46 50 42 50 37C50 32 50 28 50 25Z" fill="#2F4F4F"/>
<!-- Light rain drops -->
<path d="M28 45L28 52" stroke="#B0E0E6" stroke-width="1.5" stroke-linecap="round" opacity="0.6"/>
<path d="M35 42L35 48" stroke="#B0E0E6" stroke-width="1.5" stroke-linecap="round" opacity="0.6"/>
<path d="M42 44L42 50" stroke="#B0E0E6" stroke-width="1.5" stroke-linecap="round" opacity="0.6"/>
<path d="M49 41L49 47" stroke="#B0E0E6" stroke-width="1.5" stroke-linecap="round" opacity="0.6"/>
<defs>
<linearGradient id="paint0_linear_light_rain_bg_night" x1="0" y1="0" x2="72" y2="72" gradientUnits="userSpaceOnUse">
<stop stop-color="#191970"/>
<stop offset="1" stop-color="#4169E1"/>
</linearGradient>
</defs>
</svg>

